<svg width="612" height="324" viewBox="0 0 612 324" fill="none" xmlns="http://www.w3.org/2000/svg">
<g id="Group 9">
<circle id="Base-Vector" cx="219" cy="154" r="113.5" stroke="#F6E8EA" stroke-width="25"/>
<g id="L-Vector" filter="url(#filter0_d)">
<path d="M245.451 108.452C213.419 118.452 -3.51677 182.28 1.98325 187.28C7.48327 192.28 26.9833 191.28 26.9833 191.28C26.9833 191.28 240.415 123.658 245.451 121.78C250.487 119.902 289.95 103.268 284.487 126.268C279.023 149.268 185.487 306.404 180.487 315.769C175.487 325.133 204.997 305.393 204.997 305.393C204.997 305.393 275.675 179.96 293.941 140.364C312.207 100.769 277.483 98.452 245.451 108.452Z" fill="#F6E8EA"/>
</g>
<g id="A-Vector" filter="url(#filter1_d)">
<path d="M258.665 24.2683C229.843 49.7836 34.1414 240.026 47.6515 236.147C61.1616 232.268 68.6616 227.268 68.6616 227.268C68.6616 227.268 249.56 51.6186 262.266 38.1186C274.972 24.6187 306.404 5.76822 293.987 38.1186C281.569 70.469 193.665 207.793 185.165 220.793C176.665 233.793 210.165 209.793 210.165 209.793C210.165 209.793 268.343 114.817 298.665 55.2926C328.987 -4.23177 287.487 -1.24704 258.665 24.2683Z" fill="#F6E8EA"/>
</g>
<g id="Frame 9">
<path id="dev." d="M100.476 20.336C99.58 20.336 98.768 20.1773 98.04 19.86C97.3307 19.5427 96.7147 19.076 96.192 18.46C95.6693 17.844 95.268 17.0973 94.988 16.22C94.708 15.324 94.568 14.3067 94.568 13.168C94.568 12.048 94.736 11.0493 95.072 10.172C95.4267 9.276 95.884 8.52 96.444 7.904C97.0227 7.288 97.676 6.812 98.404 6.476C99.1507 6.14 99.916 5.972 100.7 5.972C101.503 5.972 102.212 6.12133 102.828 6.42C103.463 6.71867 104.06 7.13867 104.62 7.68H104.704L104.564 5.244V0.147999H107.336V20H105.068L104.844 18.32H104.76C104.219 18.8613 103.575 19.3373 102.828 19.748C102.081 20.14 101.297 20.336 100.476 20.336ZM101.12 18.04C102.352 18.04 103.5 17.424 104.564 16.192V9.696C104.023 9.17333 103.481 8.80933 102.94 8.604C102.399 8.39867 101.857 8.296 101.316 8.296C100.775 8.296 100.271 8.408 99.804 8.632C99.3373 8.856 98.9267 9.18267 98.572 9.612C98.2173 10.0227 97.9373 10.5267 97.732 11.124C97.5267 11.7213 97.424 12.3933 97.424 13.14C97.424 14.7267 97.7413 15.94 98.376 16.78C99.0293 17.62 99.944 18.04 101.12 18.04ZM120.429 20.336C119.384 20.336 118.413 20.1773 117.517 19.86C116.621 19.5427 115.837 19.076 115.165 18.46C114.493 17.844 113.961 17.088 113.569 16.192C113.196 15.296 113.009 14.2787 113.009 13.14C113.009 12.02 113.205 11.0213 113.597 10.144C113.989 9.248 114.502 8.492 115.137 7.876C115.79 7.26 116.537 6.79333 117.377 6.476C118.217 6.14 119.094 5.972 120.009 5.972C121.017 5.972 121.913 6.13067 122.697 6.448C123.481 6.76533 124.134 7.21333 124.657 7.792C125.198 8.352 125.609 9.03333 125.889 9.836C126.169 10.62 126.309 11.488 126.309 12.44C126.309 12.7387 126.3 13.0187 126.281 13.28C126.262 13.5413 126.234 13.7653 126.197 13.952H115.781C115.93 15.3707 116.462 16.4253 117.377 17.116C118.31 17.8067 119.449 18.152 120.793 18.152C121.558 18.152 122.258 18.0493 122.893 17.844C123.528 17.62 124.153 17.3213 124.769 16.948L125.749 18.712C125.04 19.1787 124.237 19.5707 123.341 19.888C122.464 20.1867 121.493 20.336 120.429 20.336ZM120.093 8.156C119.57 8.156 119.076 8.24 118.609 8.408C118.142 8.55733 117.722 8.79067 117.349 9.108C116.976 9.42533 116.658 9.81733 116.397 10.284C116.136 10.7507 115.949 11.292 115.837 11.908H123.817C123.724 10.6573 123.341 9.724 122.669 9.108C122.016 8.47333 121.157 8.156 120.093 8.156ZM136.266 20L130.666 6.308H133.466L136.35 13.756C136.611 14.4467 136.854 15.128 137.078 15.8C137.321 16.472 137.563 17.144 137.806 17.816H137.918C138.161 17.144 138.394 16.472 138.618 15.8C138.842 15.128 139.085 14.4467 139.346 13.756L142.23 6.308H144.89L139.402 20H136.266ZM155.967 20.336C155.258 20.336 154.661 20.1027 154.175 19.636C153.69 19.1507 153.447 18.516 153.447 17.732C153.447 16.9667 153.69 16.3413 154.175 15.856C154.661 15.3707 155.258 15.128 155.967 15.128C156.677 15.128 157.274 15.3707 157.759 15.856C158.245 16.3413 158.487 16.9667 158.487 17.732C158.487 18.516 158.245 19.1507 157.759 19.636C157.274 20.1027 156.677 20.336 155.967 20.336Z" fill="#F6E8EA"/>
</g>
<g id="Frame 10" filter="url(#filter2_d)">
<path id="ALI" d="M387.72 92L387.672 92.144L400.536 123.392L394.344 122L390.984 113.216L379.656 113.984L376.2 123.392L369.48 122L381.096 90.032L387.72 92ZM385.32 98.48L381.192 109.808L389.448 109.232L385.32 98.48ZM412.931 91.952L412.979 117.68H427.763L431.603 122H413.027L406.307 120.608V89.984L412.931 91.952ZM444.967 92L445.063 123.392L437.863 122V90.032L444.967 92Z" fill="#F6E8EA"/>
</g>
<g id="Frame 11" filter="url(#filter3_d)">
<path id="LEON" d="M377.984 142.952L378.032 168.68H392.816L396.656 173H378.08L371.36 171.608V140.984L377.984 142.952ZM409.156 173L409.06 172.904L402.916 171.608V140.984H423.412L427.252 145.304H409.54V154.52H421.492L425.332 158.84H409.588V168.68H425.332L429.172 173H409.156ZM457.292 145.544C454.092 143.432 450.924 143.544 447.788 145.88C445.26 147.8 443.42 150.568 442.268 154.184C441.02 158.216 441.148 161.688 442.652 164.6C443.388 166.072 444.476 167.24 445.916 168.104C449.148 170.056 452.316 169.832 455.42 167.432C457.948 165.48 459.756 162.68 460.844 159.032C462.028 155 461.804 151.544 460.172 148.664C459.468 147.384 458.508 146.344 457.292 145.544ZM464.78 147.896C465.996 149.08 466.908 150.488 467.516 152.12C468.124 153.72 468.412 155.368 468.38 157.064C468.38 158.728 468.108 160.424 467.564 162.152C467.052 163.88 466.332 165.496 465.404 167C464.508 168.472 463.42 169.8 462.14 170.984C460.86 172.136 459.484 173.016 458.012 173.624C456.54 174.232 454.94 174.488 453.212 174.392C451.484 174.296 449.788 173.768 448.124 172.808C447.868 172.648 447.404 172.392 446.732 172.04C446.092 171.688 445.628 171.448 445.34 171.32C445.084 171.16 444.684 170.92 444.14 170.6C443.596 170.248 443.132 169.944 442.748 169.688C442.396 169.4 441.948 169.064 441.404 168.68C440.892 168.264 440.364 167.816 439.82 167.336C439.276 166.856 438.7 166.312 438.092 165.704C436.908 164.584 436.028 163.24 435.452 161.672C434.908 160.104 434.652 158.488 434.684 156.824C434.748 155.16 435.036 153.48 435.548 151.784C436.06 150.056 436.764 148.44 437.66 146.936C438.588 145.4 439.676 144.04 440.924 142.856C442.172 141.64 443.484 140.696 444.86 140.024C446.268 139.32 447.772 138.968 449.372 138.968C450.972 138.968 452.54 139.384 454.076 140.216C458.236 142.456 461.804 145.016 464.78 147.896ZM505.472 142.952V174.392L498.752 173L483.2 151.016L483.296 174.392L476.576 173V141.032L483.2 142.952L498.752 164.696V141.032L505.472 142.952Z" fill="#F6E8EA"/>
</g>
<g id="Frame 12" filter="url(#filter4_d)">
<path id="AINAGAS" d="M387.72 200L387.672 200.144L400.536 231.392L394.344 230L390.984 221.216L379.656 221.984L376.2 231.392L369.48 230L381.096 198.032L387.72 200ZM385.32 206.48L381.192 217.808L389.448 217.232L385.32 206.48ZM413.411 200L413.507 231.392L406.307 230V198.032L413.411 200ZM451.525 199.952V231.392L444.805 230L429.253 208.016L429.349 231.392L422.629 230V198.032L429.253 199.952L444.805 221.696V198.032L451.525 199.952ZM476.014 200L475.966 200.144L488.83 231.392L482.638 230L479.278 221.216L467.95 221.984L464.494 231.392L457.774 230L469.39 198.032L476.014 200ZM473.614 206.48L469.486 217.808L477.742 217.232L473.614 206.48ZM512.841 218.096L509.001 213.776H520.185L526.809 215.744C526.873 222.816 526.905 226.816 526.905 227.744C526.905 230.272 527.161 232.048 527.673 233.072C528.217 234.096 529.321 234.848 530.985 235.328C528.681 235.936 526.489 235.568 524.409 234.224C522.361 232.912 521.257 231.024 521.097 228.56L520.953 226.4C519.801 227.392 518.761 228.208 517.833 228.848C516.905 229.456 515.833 230 514.617 230.48C513.433 230.96 512.201 231.136 510.921 231.008C509.673 230.912 508.393 230.496 507.081 229.76C503.305 227.616 500.569 225.776 498.873 224.24C497.401 222.864 496.233 221.376 495.369 219.776C494.505 218.176 493.977 216.608 493.785 215.072C493.625 213.536 493.657 211.968 493.881 210.368C494.137 208.768 494.633 207.28 495.369 205.904C496.105 204.528 496.953 203.216 497.913 201.968C498.873 200.72 499.961 199.68 501.177 198.848C502.425 198.016 503.673 197.328 504.921 196.784C506.201 196.208 507.513 195.936 508.857 195.968C510.201 196 511.465 196.256 512.649 196.736C518.377 199.36 522.105 201.104 523.833 201.968L521.769 204.512C521.289 204.288 519.033 203.376 515.001 201.776C513.593 201.2 512.281 201.04 511.065 201.296C509.849 201.552 508.649 202.048 507.465 202.784C506.313 203.488 505.321 204.448 504.489 205.664C503.657 206.88 502.921 208.176 502.281 209.552C501.641 210.896 501.225 212.336 501.033 213.872C500.873 215.408 500.873 216.864 501.033 218.24C501.225 219.616 501.705 220.912 502.473 222.128C503.241 223.344 504.265 224.32 505.545 225.056C506.633 225.696 507.737 226.016 508.857 226.016C510.009 226.016 511.081 225.792 512.073 225.344C513.065 224.864 514.025 224.24 514.953 223.472C515.913 222.704 516.793 221.904 517.593 221.072C518.393 220.24 519.145 219.44 519.849 218.672C520.073 218.416 520.233 218.224 520.329 218.096H512.841ZM551.408 200L551.36 200.144L564.224 231.392L558.031 230L554.672 221.216L543.344 221.984L539.888 231.392L533.168 230L544.784 198.032L551.408 200ZM549.008 206.48L544.88 217.808L553.136 217.232L549.008 206.48ZM594.666 204.704C593.322 204.192 592.01 203.776 590.73 203.456C589.482 203.136 588.058 202.96 586.458 202.928C584.89 202.864 583.498 203.056 582.282 203.504C581.066 203.952 579.962 204.816 578.97 206.096C577.978 207.344 577.322 208.992 577.002 211.04C576.938 211.392 578.154 211.504 580.65 211.376C583.146 211.216 585.578 211.04 587.946 210.848C590.314 210.656 591.946 210.8 592.842 211.28C596.01 214.096 598.234 216.704 599.514 219.104C600.154 220.256 599.882 221.92 598.698 224.096C597.194 226.816 595.018 228.816 592.17 230.096C587.146 232.4 581.642 231.552 575.658 227.552C573.226 225.92 570.778 223.76 568.314 221.072L569.754 220.352C571.61 221.344 573.098 222.112 574.218 222.656C575.37 223.2 576.81 223.76 578.538 224.336C580.266 224.88 581.786 225.168 583.098 225.2C586.138 225.264 588.634 224.528 590.586 222.992C592.538 221.424 593.642 219.312 593.898 216.656C593.93 216.368 592.778 216.416 590.442 216.8C588.106 217.152 585.754 217.472 583.386 217.76C581.018 218.048 579.226 217.824 578.01 217.088C576.73 216.064 574.73 214.048 572.01 211.04C571.146 209.984 570.698 208.848 570.666 207.632C570.634 206.416 571.034 205.184 571.866 203.936C572.698 202.688 573.722 201.568 574.938 200.576C576.154 199.584 577.578 198.768 579.21 198.128C580.874 197.488 582.522 197.168 584.154 197.168C584.57 197.168 585.354 197.44 586.506 197.984C587.658 198.496 589.242 199.28 591.258 200.336C593.306 201.392 594.65 202.08 595.29 202.4L594.666 204.704Z" fill="#F6E8EA"/>
</g>
</g>
<defs>
<filter id="filter0_d" x="0.880493" y="102.446" width="303.115" height="220.843" filterUnits="userSpaceOnUse" color-interpolation-filters="sRGB">
<feFlood flood-opacity="0" result="BackgroundImageFix"/>
<feColorMatrix in="SourceAlpha" type="matrix" values="0 0 0 0 0 0 0 0 0 0 0 0 0 0 0 0 0 0 127 0"/>
<feOffset dx="2" dy="2"/>
<feGaussianBlur stdDeviation="1.5"/>
<feColorMatrix type="matrix" values="0 0 0 0 0 0 0 0 0 0 0 0 0 0 0 0 0 0 0.15 0"/>
<feBlend mode="normal" in2="BackgroundImageFix" result="effect1_dropShadow"/>
<feBlend mode="normal" in="SourceGraphic" in2="effect1_dropShadow" result="shape"/>
</filter>
<filter id="filter1_d" x="45.9839" y="6" width="268.277" height="235.206" filterUnits="userSpaceOnUse" color-interpolation-filters="sRGB">
<feFlood flood-opacity="0" result="BackgroundImageFix"/>
<feColorMatrix in="SourceAlpha" type="matrix" values="0 0 0 0 0 0 0 0 0 0 0 0 0 0 0 0 0 0 127 0"/>
<feOffset dx="2" dy="2"/>
<feGaussianBlur stdDeviation="1.5"/>
<feColorMatrix type="matrix" values="0 0 0 0 0 0 0 0 0 0 0 0 0 0 0 0 0 0 0.15 0"/>
<feBlend mode="normal" in2="BackgroundImageFix" result="effect1_dropShadow"/>
<feBlend mode="normal" in="SourceGraphic" in2="effect1_dropShadow" result="shape"/>
</filter>
<filter id="filter2_d" x="359" y="89.9839" width="105" height="37.408" filterUnits="userSpaceOnUse" color-interpolation-filters="sRGB">
<feFlood flood-opacity="0" result="BackgroundImageFix"/>
<feColorMatrix in="SourceAlpha" type="matrix" values="0 0 0 0 0 0 0 0 0 0 0 0 0 0 0 0 0 0 127 0"/>
<feOffset dx="3" dy="2"/>
<feGaussianBlur stdDeviation="1"/>
<feColorMatrix type="matrix" values="0 0 0 0 0 0 0 0 0 0 0 0 0 0 0 0 0 0 0.15 0"/>
<feBlend mode="normal" in2="BackgroundImageFix" result="effect1_dropShadow"/>
<feBlend mode="normal" in="SourceGraphic" in2="effect1_dropShadow" result="shape"/>
</filter>
<filter id="filter3_d" x="358" y="138.968" width="166" height="39.4436" filterUnits="userSpaceOnUse" color-interpolation-filters="sRGB">
<feFlood flood-opacity="0" result="BackgroundImageFix"/>
<feColorMatrix in="SourceAlpha" type="matrix" values="0 0 0 0 0 0 0 0 0 0 0 0 0 0 0 0 0 0 127 0"/>
<feOffset dx="3" dy="2"/>
<feGaussianBlur stdDeviation="1"/>
<feColorMatrix type="matrix" values="0 0 0 0 0 0 0 0 0 0 0 0 0 0 0 0 0 0 0.25 0"/>
<feBlend mode="normal" in2="BackgroundImageFix" result="effect1_dropShadow"/>
<feBlend mode="normal" in="SourceGraphic" in2="effect1_dropShadow" result="shape"/>
</filter>
<filter id="filter4_d" x="359" y="195.966" width="258" height="43.6466" filterUnits="userSpaceOnUse" color-interpolation-filters="sRGB">
<feFlood flood-opacity="0" result="BackgroundImageFix"/>
<feColorMatrix in="SourceAlpha" type="matrix" values="0 0 0 0 0 0 0 0 0 0 0 0 0 0 0 0 0 0 127 0"/>
<feOffset dx="3" dy="2"/>
<feGaussianBlur stdDeviation="1"/>
<feColorMatrix type="matrix" values="0 0 0 0 0 0 0 0 0 0 0 0 0 0 0 0 0 0 0.15 0"/>
<feBlend mode="normal" in2="BackgroundImageFix" result="effect1_dropShadow"/>
<feBlend mode="normal" in="SourceGraphic" in2="effect1_dropShadow" result="shape"/>
</filter>
</defs>
</svg>
