<svg width="35" height="35" viewBox="0 0 35 35" fill="none" xmlns="http://www.w3.org/2000/svg">
<g id="grommet-icons:facebook" clip-path="url(#clip0)">
<path id="Vector" fill-rule="evenodd" clip-rule="evenodd" d="M33.5417 0H1.45833C1.07156 0 0.700627 0.153645 0.427136 0.427136C0.153645 0.700627 0 1.07156 0 1.45833L0 33.5417C0 33.9284 0.153645 34.2994 0.427136 34.5729C0.700627 34.8464 1.07156 35 1.45833 35H18.5938V21.875H14.2188V16.4062H18.5938V12.0312C18.5938 7.51042 21.4565 5.28646 25.4888 5.28646C27.4196 5.28646 29.0806 5.43083 29.5633 5.49354V10.2185L26.7677 10.22C24.5744 10.22 24.0625 11.2627 24.0625 12.791V16.4062H29.5312L28.4375 21.875H24.0625L24.15 35H33.5417C33.9284 35 34.2994 34.8464 34.5729 34.5729C34.8464 34.2994 35 33.9284 35 33.5417V1.45833C35 1.07156 34.8464 0.700627 34.5729 0.427136C34.2994 0.153645 33.9284 0 33.5417 0" fill="white"/>
</g>
<defs>
<clipPath id="clip0">
<rect width="35" height="35" fill="white"/>
</clipPath>
</defs>
</svg>
