<svg width="55" height="20" viewBox="0 0 55 20" fill="none" xmlns="http://www.w3.org/2000/svg">
<g id="octicon:logo-github-16" clip-path="url(#clip0)">
<path id="Vector" fill-rule="evenodd" clip-rule="evenodd" d="M22.6478 15.0375H22.6233C22.6343 15.0375 22.6417 15.05 22.6527 15.0512H22.66L22.6478 15.0387V15.0375ZM22.6527 15.0512C22.539 15.0525 22.253 15.1137 21.9511 15.1137C20.9978 15.1137 20.6678 14.6637 20.6678 14.0762V10.1625H22.6111C22.7211 10.1625 22.8067 10.0625 22.8067 9.92499V7.79999C22.8067 7.68749 22.7089 7.5875 22.6111 7.5875H20.6678V4.95C20.6678 4.85 20.6067 4.7875 20.4967 4.7875H17.8567C17.7467 4.7875 17.6856 4.85 17.6856 4.95V7.6625C17.6856 7.6625 16.3533 7.99999 16.2678 8.01249C16.17 8.03749 16.1089 8.12499 16.1089 8.22499V9.92499C16.1089 10.0625 16.2067 10.1625 16.3167 10.1625H17.6733V14.2625C17.6733 17.3125 19.7511 17.625 21.1689 17.625C21.8167 17.625 22.5989 17.4125 22.7211 17.35C22.7944 17.325 22.8311 17.2375 22.8311 17.15V15.275C22.8328 15.2218 22.8157 15.1698 22.7829 15.1285C22.7501 15.0871 22.7039 15.0593 22.6527 15.05V15.0512ZM51.6144 12.3C51.6144 10.0375 50.7222 9.73749 49.7811 9.83749C49.0478 9.88749 48.4611 10.2625 48.4611 10.2625V14.6625C48.4611 14.6625 49.06 15.0875 49.9522 15.1125C51.2111 15.15 51.6144 14.6875 51.6144 12.3ZM54.5844 12.1C54.5844 16.3875 53.2278 17.6125 50.8567 17.6125C48.8522 17.6125 47.7767 16.575 47.7767 16.575C47.7767 16.575 47.7278 17.15 47.6667 17.225C47.63 17.3 47.5689 17.325 47.4956 17.325H45.6867C45.5644 17.325 45.4544 17.225 45.4544 17.1125L45.4789 3.225C45.4789 3.1125 45.5767 3.0125 45.6867 3.0125H48.29C48.4 3.0125 48.4978 3.1125 48.4978 3.225V7.93749C48.4978 7.93749 49.5 7.275 50.9667 7.275L50.9544 7.25C52.4211 7.25 54.5844 7.8125 54.5844 12.1ZM43.9267 7.5875H41.36C41.2256 7.5875 41.1522 7.6875 41.1522 7.825V14.625C41.1522 14.625 40.48 15.1125 39.5633 15.1125C38.6467 15.1125 38.3778 14.6875 38.3778 13.75V7.81249C38.3778 7.7 38.28 7.59999 38.17 7.59999H35.5544C35.4444 7.59999 35.3467 7.7 35.3467 7.81249V14.2C35.3467 16.95 36.85 17.6375 38.9156 17.6375C40.6144 17.6375 41.9956 16.675 41.9956 16.675C41.9956 16.675 42.0567 17.1625 42.0933 17.2375C42.1178 17.3 42.2033 17.35 42.2889 17.35H43.9267C44.0611 17.35 44.1344 17.25 44.1344 17.1375L44.1589 7.79999C44.1589 7.68749 44.0611 7.5875 43.9267 7.5875ZM14.96 7.575H12.3567C12.2467 7.575 12.1489 7.6875 12.1489 7.825V17C12.1489 17.25 12.3078 17.3375 12.5156 17.3375H14.8622C15.1067 17.3375 15.1678 17.225 15.1678 17V7.7875C15.1678 7.67499 15.07 7.575 14.96 7.575ZM13.6767 3.35C12.7356 3.35 11.99 4.1125 11.99 5.075C11.99 6.0375 12.7356 6.8 13.6767 6.8C14.5933 6.8 15.3389 6.0375 15.3389 5.075C15.3389 4.1125 14.5933 3.35 13.6767 3.35ZM33.8311 3.0375H31.2522C31.1422 3.0375 31.0444 3.1375 31.0444 3.25V8.36249H26.9989V3.25C26.9989 3.1375 26.9011 3.0375 26.7911 3.0375H24.1878C24.0778 3.0375 23.98 3.1375 23.98 3.25V17.1375C23.98 17.25 24.09 17.35 24.1878 17.35H26.7911C26.9011 17.35 26.9989 17.25 26.9989 17.1375V11.2H31.0444L31.02 17.1375C31.02 17.25 31.1178 17.35 31.2278 17.35H33.8311C33.9411 17.35 34.0389 17.25 34.0389 17.1375V3.25C34.0389 3.1375 33.9411 3.0375 33.8311 3.0375ZM10.7678 9.18749V16.3625C10.7678 16.4125 10.7556 16.5 10.6944 16.525C10.6944 16.525 9.16667 17.6375 6.64889 17.6375C3.60556 17.6375 0 16.6625 0 10.2375C0 3.81249 3.15333 2.4875 6.23333 2.5C8.89778 2.5 9.97333 3.1125 10.1444 3.225C10.1933 3.2875 10.2178 3.3375 10.2178 3.4L9.70444 5.625C9.70444 5.7375 9.59444 5.875 9.46 5.8375C9.02 5.7 8.36 5.425 6.80778 5.425C5.01111 5.425 3.08 5.94999 3.08 10.0875C3.08 14.225 4.91333 14.7125 6.23333 14.7125C7.35778 14.7125 7.76111 14.575 7.76111 14.575V11.7H5.96444C5.83 11.7 5.73222 11.6 5.73222 11.4875V9.18749C5.73222 9.07499 5.83 8.97499 5.96444 8.97499H10.5356C10.67 8.97499 10.7678 9.07499 10.7678 9.18749Z" fill="white"/>
</g>
<defs>
<clipPath id="clip0">
<rect width="55" height="20" fill="white"/>
</clipPath>
</defs>
</svg>
