<svg width="35" height="35" viewBox="0 0 35 35" fill="none" xmlns="http://www.w3.org/2000/svg">
<g id="cib:linkedin" clip-path="url(#clip0)">
<path id="Vector" d="M29.8156 29.8277H24.6389V21.7044C24.6389 19.7673 24.5984 17.278 21.9319 17.278C19.2325 17.278 18.8213 19.3791 18.8213 21.5611V29.8266H13.638V13.1239H18.6167V15.4022H18.6834C19.3791 14.0864 21.0711 12.7028 23.5955 12.7028C28.8466 12.7028 29.8211 16.1602 29.8211 20.6555V29.8266L29.8156 29.8277ZM7.78203 10.8412C7.38639 10.8414 6.99462 10.7635 6.62914 10.612C6.26366 10.4605 5.93166 10.2384 5.65216 9.95835C5.37265 9.67834 5.15114 9.34594 5.0003 8.98018C4.84946 8.61443 4.77226 8.22251 4.77312 7.82688C4.77377 7.23138 4.95098 6.64946 5.28233 6.15467C5.61369 5.65988 6.08431 5.27445 6.6347 5.04712C7.18509 4.81978 7.79053 4.76075 8.37447 4.87748C8.95841 4.99421 9.49462 5.28147 9.91531 5.70293C10.336 6.12438 10.6223 6.66112 10.738 7.24527C10.8536 7.82942 10.7935 8.43475 10.5652 8.98472C10.3368 9.5347 9.95055 10.0046 9.45516 10.3351C8.95977 10.6655 8.37752 10.8417 7.78203 10.8412ZM10.3786 29.8277H5.18437V13.125H10.3786V29.8277ZM32.4144 0H2.58125C1.15609 0 0 1.12766 0 2.52328V32.4778C0 33.8734 1.15609 35.0011 2.58125 35.0011H32.4089C33.8319 35.0011 35 33.8734 35 32.4778V2.52328C35 1.12766 33.8319 0 32.4089 0H32.4144Z" fill="white"/>
</g>
<defs>
<clipPath id="clip0">
<rect width="35" height="35" fill="white"/>
</clipPath>
</defs>
</svg>
