<svg width="175" height="36" viewBox="0 0 175 36" fill="none" xmlns="http://www.w3.org/2000/svg">
<path d="M151.494 1.31714C151.38 1.56465 150.683 3.60297 149.915 5.83056C148.947 8.6842 148.577 9.93631 148.677 10.0382C148.904 10.2712 151.451 10.344 151.722 10.111C151.85 10.0237 152.277 8.87347 152.689 7.56313C153.088 6.25278 153.5 5.16083 153.6 5.11715C153.771 5.04435 160.6 7.66504 168.81 10.9118C170.831 11.7126 171.058 11.8436 170.987 12.1057C170.873 12.5424 166.534 23.8405 166.448 23.9425C166.406 23.9861 165.595 23.6949 164.656 23.2873C163.716 22.8942 162.905 22.603 162.863 22.6467C162.82 22.6903 162.792 23.4183 162.792 24.2773V25.8352L163.759 26.272C165.965 27.2766 168.213 28.1064 168.327 27.9754C168.597 27.6842 175.042 10.5915 175 10.2857C174.957 10.0091 174.516 9.79072 171.756 8.69876C168.611 7.46121 157.868 3.25354 152.006 0.967718C151.722 0.851243 151.65 0.894921 151.494 1.31714Z" fill="white"/>
<path d="M64.1437 1.22975C64.0868 1.27343 64.0441 5.46654 64.0441 10.5186C64.0441 20.8849 64.0441 20.8995 65.1397 22.9961C68.3696 29.1256 76.978 30.0282 80.9336 24.6558C82.3565 22.7049 82.8972 21.0305 82.8829 18.5263C82.8829 16.9976 82.8403 16.6336 82.4845 15.6144C81.4743 12.6152 79.155 10.242 76.2808 9.25198C75.4413 8.96079 75.0002 8.91711 71.6992 8.87344L68.0281 8.82976V5.2627C68.0281 3.07879 67.9712 1.57917 67.8859 1.40446C67.7436 1.15695 67.5728 1.12783 65.9792 1.12783C65.0259 1.12783 64.1864 1.17151 64.1437 1.22975ZM75.1567 13.2121C76.4516 13.5616 77.6752 14.6098 78.3298 15.9493C79.4538 18.2206 78.9274 20.9577 77.0492 22.6612C76.2524 23.3746 75.4555 23.7677 74.3172 23.9861C72.0406 24.452 69.5222 23.0834 68.4835 20.8121C68.1135 19.9968 68.0993 19.9095 68.0566 16.6336C68.0139 13.6198 68.0281 13.2849 68.2558 13.1102C68.5546 12.8773 74.2319 12.9646 75.1567 13.2121Z" fill="white"/>
<path d="M20.3192 8.7861C20.2623 8.84434 20.2196 13.1685 20.2196 18.3953C20.2196 25.8352 20.2623 27.9317 20.4046 28.0191C20.618 28.1647 23.8337 28.2083 24.0471 28.0627C24.1609 28.0045 24.1894 25.1945 24.1752 18.3662L24.1325 8.77154L22.2685 8.72786C21.2583 8.7133 20.3761 8.74242 20.3192 8.7861Z" fill="white"/>
<path d="M51.594 8.82976C48.1933 9.41214 45.376 11.8436 44.1523 15.2359C43.6828 16.5462 43.5547 19.0796 43.8962 20.5646C44.5223 23.2872 46.3862 25.675 48.9332 27.0145C50.7687 27.9899 51.2098 28.0482 57.1005 28.0919C60.8853 28.121 62.3793 28.0773 62.4932 27.9608C62.607 27.8443 62.6355 26.301 62.5928 22.2826C62.5216 16.8229 62.5216 16.7646 62.1517 15.6144C61.1414 12.4405 58.936 10.1983 55.7914 9.15007C54.7527 8.80064 52.718 8.64049 51.594 8.82976ZM54.8808 13.1685C55.8341 13.4888 56.4602 13.9256 57.1859 14.7263C58.3668 16.0367 58.4238 16.2842 58.4664 20.4045L58.5091 24.0152L55.1227 23.957C51.8074 23.9133 51.722 23.8987 50.9252 23.5202C49.3031 22.7485 48.5206 21.8604 47.9656 20.1861C47.0265 17.3907 48.6344 14.275 51.5655 13.2121C52.5046 12.8627 53.9702 12.8482 54.8808 13.1685Z" fill="white"/>
<path d="M92.217 8.78608C88.3325 9.51405 85.4726 12.0183 84.3627 15.6872C83.879 17.3033 83.9216 19.6765 84.4481 21.2926C85.5295 24.5248 88.0907 26.9853 91.2921 27.8443C91.847 27.9899 93.3553 28.0482 97.069 28.0627C99.8436 28.0773 102.277 28.0918 102.504 28.0773L102.889 28.0627V22.7049C102.889 16.6336 102.817 16.0512 101.893 14.1439C100.413 11.0428 97.2824 8.93167 93.9529 8.78608C93.1988 8.7424 92.4162 8.7424 92.217 8.78608ZM95.8026 13.3868C96.8413 13.8819 97.88 14.9447 98.4207 16.0512L98.8334 16.9248L98.876 20.4627L98.933 24.0152L95.5323 23.957C92.4304 23.8987 92.0747 23.8696 91.3348 23.5639C89.727 22.9233 88.4321 21.2489 88.1049 19.3999C87.6353 16.8083 89.2859 14.1585 91.9609 13.183C93.0707 12.7899 94.7213 12.8773 95.8026 13.3868Z" fill="white"/>
<path d="M7.0153 9.13551C3.74269 10.0382 0.882714 13.0083 0.228192 16.2405C-0.0563823 17.5945 -0.0848397 35.5463 0.199735 35.7355C0.512767 35.9394 3.55772 35.983 3.78538 35.7792C3.97035 35.6336 3.99881 35.0076 3.99881 31.9938C3.99881 28.8344 4.02727 28.3685 4.22647 28.2957C4.35453 28.252 5.86277 28.2083 7.59868 28.2083C11.227 28.2083 12.1234 28.0627 13.7882 27.2474C15.2822 26.5194 17.075 24.6849 17.8291 23.1125C20.4615 17.6382 17.9857 11.4068 12.3653 9.32478C10.9424 8.80064 8.552 8.71328 7.0153 9.13551ZM10.7575 13.1393C11.5827 13.2849 12.906 14.0566 13.4751 14.7263C15.7944 17.4926 15.0688 21.7003 12.0096 23.3746C10.8144 24.0152 9.84682 24.1462 6.77341 24.1026L4.06995 24.0589V20.7102V17.3616L4.52527 16.3861C5.09442 15.1485 6.03352 14.1876 7.2145 13.6198C8.11091 13.1976 9.30613 12.9209 9.90373 13.0083C10.0603 13.0374 10.4444 13.0957 10.7575 13.1393Z" fill="white"/>
<path d="M26.096 9.0336C26.1387 9.15007 27.5189 11.2466 29.1837 13.6926L32.1859 18.1623L28.7284 22.9669C26.8217 25.6168 25.2566 27.8443 25.2281 27.9171C25.157 28.1064 26.5371 28.2229 28.4011 28.1792L30.1086 28.1355L32.5701 24.7869C33.9219 22.9378 35.1171 21.4236 35.2024 21.4091C35.302 21.38 36.4688 22.865 37.7921 24.6995C39.1296 26.5486 40.339 28.0773 40.4955 28.121C40.9793 28.2666 44.8068 28.2229 44.9064 28.0627C44.9491 27.9899 43.4978 25.8497 41.6623 23.3018C39.841 20.7539 38.2901 18.5846 38.2332 18.4827C38.162 18.3662 39.1153 16.852 40.7943 14.3332C42.2599 12.1639 43.5689 10.2129 43.7112 10.0091C43.8393 9.80525 43.9958 9.47038 44.0385 9.23743L44.1381 8.84433L41.7619 8.87344L39.3857 8.91712L37.2941 12.0037C36.1558 13.7072 35.174 15.134 35.1313 15.1777C35.0886 15.2359 34.0784 13.8236 32.8832 12.062L30.7346 8.84433H28.3726C26.4802 8.84433 26.0391 8.888 26.096 9.0336Z" fill="white"/>
<path d="M104.311 14.275C104.311 19.3125 104.326 19.7784 104.61 20.783C105.393 23.6949 107.1 25.8351 109.647 27.1163C111.155 27.888 112.251 28.1355 114.058 28.1209C115.837 28.1209 116.818 27.8734 118.241 27.1163L119.138 26.6213L119.052 27.2037C118.825 28.6305 117.558 30.334 116.192 31.0328C115.396 31.455 114.115 31.688 112.536 31.7026H111.71V33.6535C111.71 35.9539 111.54 35.7792 113.845 35.7792C116.264 35.7792 117.772 35.2696 119.607 33.8282C121.073 32.6926 122.126 31.1347 122.78 29.1547L123.164 27.9899L123.207 19.0359C123.236 14.1148 123.207 9.80521 123.164 9.45579L123.079 8.84429H121.158H119.252V13.2412C119.252 18.2788 119.124 19.7347 118.626 20.8704C118.17 21.875 117.117 22.9378 116.05 23.4911C115.268 23.8842 115.068 23.9133 113.702 23.9133C112.365 23.8987 112.123 23.8696 111.383 23.4911C110.33 22.9669 109.291 21.9041 108.765 20.8267L108.367 19.9822L108.281 14.4497C108.239 11.4067 108.196 8.90253 108.182 8.87341C108.167 8.85885 107.285 8.84429 106.232 8.84429H104.311V14.275Z" fill="white"/>
<path d="M136.042 10.3002C136.042 10.9117 135.7 11.698 135.359 11.8872C135.188 11.9746 134.647 12.0474 134.135 12.0474H133.196V20.0405V28.0336L133.523 28.121C133.694 28.1646 139.898 28.2083 147.296 28.2083C159.448 28.2083 160.771 28.1792 160.856 27.9754C160.97 27.6696 160.97 13.2995 160.856 12.5861L160.757 12.0474H151.921H143.085L142.558 11.6106C142.274 11.3776 141.932 10.8826 141.79 10.5186L141.52 9.86347H138.788H136.042V10.3002ZM153.315 14.9301C154.439 15.4688 155.307 16.3278 155.805 17.4198C156.132 18.1332 156.175 18.4098 156.175 19.7639C156.175 21.1616 156.132 21.3654 155.763 22.137C155.236 23.1853 154.084 24.321 153.016 24.8305C152.305 25.1654 152.006 25.2091 150.768 25.2091C149.445 25.2236 149.274 25.18 148.406 24.7577C147.282 24.1899 146.272 23.1416 145.746 21.9769C145.432 21.2926 145.376 20.9432 145.361 19.9095C145.361 18.8612 145.418 18.5409 145.746 17.842C146.443 16.3133 148.065 14.9301 149.644 14.5225C150.669 14.2604 152.305 14.4497 153.315 14.9301ZM141.875 15.4397C141.875 15.8619 141.804 16.2842 141.705 16.3861C141.591 16.5026 140.808 16.5608 139.143 16.5608H136.753V15.7018C136.753 15.1485 136.81 14.8137 136.938 14.77C137.023 14.7263 138.176 14.6826 139.499 14.6826L141.875 14.6681V15.4397Z" fill="white"/>
<path d="M149.303 16.8666C148.321 17.3762 147.567 18.6137 147.567 19.7202C147.567 20.8995 148.52 22.2827 149.687 22.7777C150.284 23.0398 151.48 23.0689 152.148 22.8359C153.742 22.2972 154.453 20.026 153.571 18.2934C152.974 17.1287 152.234 16.6482 150.939 16.59C150.114 16.5608 149.801 16.6045 149.303 16.8666Z" fill="white"/>
</svg>
