<svg width="54" height="62" viewBox="0 0 54 62" fill="none" xmlns="http://www.w3.org/2000/svg">
<g filter="url(#filter0_d)">
<path d="M4.09757 12.1291H13.8411C16.7885 12.1291 18.8917 13.0877 20.1508 15.0049C21.4099 16.8935 22.0394 19.6692 22.0394 23.332C22.0394 26.9948 21.4814 29.7562 20.3654 31.6162C19.2494 33.4762 17.2463 34.4062 14.3562 34.4062H11.3516V49H4.09757V12.1291ZM11.7808 27.7531C12.6679 27.7531 13.3117 27.5957 13.7123 27.2809C14.1416 26.9375 14.4134 26.4654 14.5279 25.8645C14.671 25.2349 14.7425 24.3478 14.7425 23.2032C14.7425 21.658 14.5708 20.542 14.2274 19.8552C13.884 19.1685 13.1973 18.8251 12.1671 18.8251H11.3516V27.7531H11.7808Z" fill="#DB9610"/>
<path d="M17.425 49.5151C16.9329 49.5151 16.578 49.3434 16.3606 49C16.1545 48.6681 16.0515 48.2503 16.0515 47.7466C16.0515 47.1972 16.1545 46.5448 16.3606 45.7894C16.5666 45.0339 16.8356 44.2384 17.1675 43.4028C17.5109 42.5673 17.8829 41.7546 18.2835 40.9648C18.6841 40.1636 19.0847 39.4367 19.4854 38.7843C19.886 38.1319 20.2522 37.6111 20.5842 37.2219C20.9276 36.8327 21.1966 36.6382 21.3911 36.6382C21.517 36.6382 21.6201 36.7126 21.7002 36.8614C21.7803 36.9987 21.8433 37.1704 21.889 37.3764C21.9348 37.571 21.9577 37.7484 21.9577 37.9087C21.9577 38.2177 21.8776 38.6241 21.7174 39.1277C21.5686 39.6199 21.3511 40.175 21.0649 40.7931C20.7902 41.3998 20.4583 42.0178 20.0691 42.6474C19.6914 43.2655 19.2736 43.8607 18.8158 44.433C18.3694 45.0053 17.8943 45.4975 17.3907 45.9095C17.322 46.2186 17.2648 46.5219 17.219 46.8195C17.1847 47.1057 17.1675 47.3804 17.1675 47.6436C17.1675 48.525 17.4193 48.9657 17.923 48.9657C18.232 48.9657 18.5353 48.8283 18.8329 48.5536C19.142 48.2789 19.4281 47.9355 19.6914 47.5234C19.9661 47.0999 20.2007 46.665 20.3953 46.2186L20.6529 46.3559C20.195 47.3289 19.6971 48.1015 19.1591 48.6738C18.6212 49.2346 18.0431 49.5151 17.425 49.5151ZM17.5452 45.3258C17.9458 44.9252 18.335 44.4673 18.7127 43.9522C19.0905 43.4257 19.4396 42.882 19.7601 42.3212C20.092 41.7603 20.3839 41.2166 20.6357 40.6901C20.8875 40.1636 21.0821 39.6943 21.2194 39.2822C21.3568 38.8587 21.4255 38.5325 21.4255 38.3036C21.4255 38.1891 21.4083 38.1147 21.374 38.0804C21.3511 38.046 21.3282 38.0289 21.3053 38.0289C21.2137 38.0289 21.0535 38.1777 20.8246 38.4753C20.6071 38.7614 20.3495 39.1506 20.0519 39.6428C19.7543 40.135 19.451 40.6958 19.142 41.3254C18.8329 41.9549 18.5353 42.613 18.2492 43.2998C17.9745 43.9866 17.7398 44.6619 17.5452 45.3258ZM23.3541 41.5829C23.1709 41.5829 23.005 41.5371 22.8562 41.4455C22.7188 41.354 22.6501 41.2109 22.6501 41.0163C22.6501 40.7759 22.7875 40.5699 23.0622 40.3982C23.3483 40.2151 23.6288 40.1235 23.9035 40.1235C24.0752 40.1235 24.2125 40.1636 24.3155 40.2437C24.4186 40.3238 24.4701 40.4612 24.4701 40.6558C24.4701 40.8732 24.3499 41.085 24.1095 41.291C23.8806 41.4856 23.6288 41.5829 23.3541 41.5829ZM21.2938 49.4464C20.8474 49.4464 20.5154 49.3033 20.2979 49.0172C20.0805 48.7425 19.9717 48.4048 19.9717 48.0042C19.9717 47.7409 20.0175 47.409 20.1091 47.0084C20.2121 46.6078 20.3437 46.19 20.504 45.755C20.6642 45.3086 20.8474 44.8908 21.0534 44.5017C21.2709 44.1125 21.4998 43.7977 21.7402 43.5574C21.9805 43.3055 22.2152 43.1796 22.4441 43.1796C22.5471 43.1796 22.633 43.214 22.7016 43.2826C22.7818 43.3399 22.8218 43.4314 22.8218 43.5574C22.8218 43.6947 22.7302 43.9179 22.5471 44.227C22.3754 44.536 22.1694 44.8908 21.929 45.2914C21.6886 45.6921 21.4769 46.1156 21.2938 46.562C21.1221 46.9969 21.0362 47.4147 21.0362 47.8153C21.0362 48.2274 21.1049 48.5021 21.2422 48.6394C21.3796 48.7768 21.5914 48.8455 21.8775 48.8455C22.2667 48.8455 22.6787 48.6509 23.1137 48.2617C23.5601 47.8726 24.0294 47.1915 24.5216 46.2186L24.6761 46.3903C24.3442 47.3746 23.8634 48.1301 23.2339 48.6566C22.6158 49.1831 21.9691 49.4464 21.2938 49.4464ZM25.6584 49.7898C24.6397 49.7898 24.1303 49.2232 24.1303 48.09C24.1303 47.5864 24.2219 46.9683 24.405 46.2358C24.5996 45.4918 24.84 44.7306 25.1261 43.9522C25.0117 43.9294 24.9029 43.9122 24.7999 43.9007C24.6969 43.8778 24.5996 43.8492 24.508 43.8149V43.5058C24.5996 43.5173 24.7083 43.5287 24.8342 43.5402C24.9601 43.5516 25.1032 43.5631 25.2635 43.5745C25.5038 42.9564 25.7614 42.3612 26.0361 41.7889C26.3108 41.2052 26.5798 40.6901 26.843 40.2437C27.1177 39.7858 27.3753 39.4253 27.6157 39.162C27.8675 38.8873 28.0792 38.75 28.2509 38.75C28.3425 38.75 28.4226 38.7843 28.4913 38.853C28.5714 38.9102 28.6115 39.0018 28.6115 39.1277C28.6115 39.3223 28.4913 39.6428 28.2509 40.0892C28.0105 40.5241 27.7129 41.0449 27.3581 41.6516C27.0033 42.2582 26.6599 42.9164 26.328 43.626H26.9632C27.3409 43.626 27.7358 43.6203 28.1479 43.6089C28.5714 43.5974 28.9949 43.5688 29.4184 43.523V43.8321C28.1708 43.9694 27.1635 44.0381 26.3966 44.0381H26.1391C25.8758 44.6447 25.6526 45.2686 25.4695 45.9095C25.2864 46.5505 25.1948 47.1743 25.1948 47.781C25.1948 48.2732 25.2692 48.628 25.418 48.8455C25.5668 49.0515 25.8129 49.1545 26.1563 49.1545C26.7515 49.1545 27.3352 48.8913 27.9075 48.3647C28.4798 47.8382 28.9835 47.1228 29.4184 46.2186L29.6416 46.3903C29.3669 47.0313 29.0178 47.6093 28.5943 48.1244C28.1822 48.6394 27.7244 49.0458 27.2208 49.3434C26.7171 49.641 26.1963 49.7898 25.6584 49.7898ZM30.9492 49.7554C30.251 49.7554 29.7244 49.5609 29.3696 49.1717C29.0262 48.794 28.8545 48.3247 28.8545 47.7638C28.8545 47.2487 28.9804 46.705 29.2322 46.1327C29.4955 45.5604 29.8389 45.0225 30.2624 44.5188C30.6974 44.0152 31.1724 43.6089 31.6874 43.2998C32.2025 42.9793 32.7119 42.8191 33.2155 42.8191C33.4788 42.8191 33.7191 42.8878 33.9366 43.0251C34.1655 43.1625 34.28 43.4429 34.28 43.8664C34.28 44.3014 34.1484 44.7134 33.8851 45.1026C33.6333 45.4803 33.2956 45.818 32.8721 46.1156C32.4601 46.4132 32.0022 46.6593 31.4986 46.8538C31.0064 47.037 30.5142 47.1514 30.022 47.1972C29.9991 47.3117 29.982 47.4204 29.9705 47.5234C29.9591 47.6265 29.9534 47.7238 29.9534 47.8153C29.9534 48.1702 30.0449 48.5021 30.2281 48.8111C30.4226 49.1087 30.7832 49.2575 31.3097 49.2575C31.8019 49.2575 32.2884 49.1202 32.7691 48.8455C33.2498 48.5593 33.6962 48.1873 34.1083 47.7295C34.5204 47.2716 34.8695 46.768 35.1556 46.2186L35.3617 46.3731C35.0526 47.0599 34.6577 47.6551 34.177 48.1587C33.7077 48.6623 33.1926 49.0515 32.6318 49.3262C32.0823 49.6124 31.5215 49.7554 30.9492 49.7554ZM30.1079 46.871C30.4169 46.768 30.766 46.6192 31.1552 46.4246C31.5444 46.2186 31.9164 45.9782 32.2712 45.7035C32.6375 45.4288 32.9351 45.1255 33.164 44.7935C33.4044 44.4616 33.5246 44.1125 33.5246 43.7462C33.5246 43.6203 33.5017 43.523 33.4559 43.4543C33.4101 43.3857 33.3128 43.3513 33.164 43.3513C32.8893 43.3513 32.5974 43.4601 32.2884 43.6775C31.9793 43.8836 31.6817 44.1583 31.3956 44.5017C31.1094 44.845 30.8519 45.2228 30.623 45.6348C30.394 46.0469 30.2223 46.459 30.1079 46.871Z" fill="#DB9610"/>
<g clip-path="url(#clip0)">
<path d="M33.2577 17.8717C33.1505 18.0832 32.9636 18.2435 32.7382 18.3173C32.5128 18.391 32.2673 18.3722 32.0558 18.265C31.8443 18.1577 31.684 17.9708 31.6102 17.7454C31.5365 17.52 31.5553 17.2746 31.6625 17.063C31.7698 16.8515 31.9566 16.6912 32.182 16.6175C32.4075 16.5437 32.6529 16.5625 32.8645 16.6698C33.076 16.777 33.2363 16.9639 33.31 17.1893C33.3838 17.4147 33.365 17.6602 33.2577 17.8717V17.8717Z" fill="#DB9610"/>
<path d="M34.4486 19.478C34.6602 19.5852 34.9056 19.604 35.1311 19.5303C35.3565 19.4565 35.5433 19.2962 35.6506 19.0847C35.7578 18.8732 35.7766 18.6277 35.7029 18.4023C35.6291 18.1769 35.4688 17.99 35.2573 17.8828C35.0458 17.7755 34.8003 17.7567 34.5749 17.8305C34.3495 17.9042 34.1626 18.0645 34.0554 18.276C33.9481 18.4876 33.9293 18.733 34.0031 18.9584C34.0768 19.1839 34.2371 19.3707 34.4486 19.478V19.478Z" fill="#DB9610"/>
<path d="M36.8414 20.691C37.0529 20.7982 37.2984 20.817 37.5238 20.7433C37.7492 20.6695 37.9361 20.5093 38.0433 20.2977C38.1506 20.0862 38.1694 19.8407 38.0956 19.6153C38.0219 19.3899 37.8616 19.203 37.6501 19.0958C37.4385 18.9886 37.1931 18.9697 36.9677 19.0435C36.7423 19.1172 36.5554 19.2775 36.4481 19.489C36.3409 19.7006 36.3221 19.9461 36.3958 20.1715C36.4696 20.3969 36.6299 20.5837 36.8414 20.691V20.691Z" fill="#DB9610"/>
<path fill-rule="evenodd" clip-rule="evenodd" d="M41.6523 16.4557C42.1943 18.1122 42.1131 19.9097 41.4237 21.5105C40.7344 23.1113 39.4844 24.4055 37.9085 25.15C37.916 25.1668 37.9215 25.1837 37.9274 25.2017L39.596 30.3015C39.665 30.5256 39.6433 30.7678 39.5355 30.976C39.4276 31.1842 39.2423 31.3417 39.0195 31.4147C38.7966 31.4876 38.5541 31.47 38.344 31.3658C38.134 31.2616 37.9732 31.0791 37.8965 30.8576L36.2279 25.7578C36.2222 25.7403 36.2171 25.7227 36.2126 25.7049C34.4261 26.0494 32.5755 25.7005 31.0372 24.729C29.4989 23.7575 28.3885 22.2365 27.9318 20.4753C27.4752 18.7142 27.7067 16.8452 28.5791 15.2487C29.4516 13.6522 30.8995 12.4479 32.6283 11.8811C33.5212 11.5889 34.4629 11.4754 35.3996 11.5472C36.3364 11.619 37.2498 11.8746 38.0878 12.2994C38.9257 12.7242 39.6718 13.3099 40.2834 14.023C40.895 14.7362 41.3602 15.5628 41.6523 16.4557ZM29.7532 20.349C29.9722 21.0187 30.3211 21.6387 30.7797 22.1735C31.2384 22.7084 31.7979 23.1477 32.4264 23.4664C33.0548 23.785 33.7399 23.9767 34.4424 24.0306C35.145 24.0845 35.8513 23.9995 36.521 23.7804C37.1906 23.5613 37.8106 23.2125 38.3455 22.7538C38.8804 22.2951 39.3197 21.7356 39.6383 21.1072C39.957 20.4787 40.1487 19.7937 40.2026 19.0911C40.2565 18.3886 40.1714 17.6823 39.9524 17.0126C39.5013 15.671 38.5383 14.562 37.2733 13.9271C36.0082 13.2923 34.5435 13.183 33.1983 13.6232C31.853 14.0633 30.7362 15.0172 30.0911 16.277C29.4459 17.5369 29.3248 19.0006 29.754 20.3494L29.7532 20.349Z" fill="#DB9610"/>
</g>
</g>
<defs>
<filter id="filter0_d" x="0.0975647" y="6" width="53.7488" height="51.7898" filterUnits="userSpaceOnUse" color-interpolation-filters="sRGB">
<feFlood flood-opacity="0" result="BackgroundImageFix"/>
<feColorMatrix in="SourceAlpha" type="matrix" values="0 0 0 0 0 0 0 0 0 0 0 0 0 0 0 0 0 0 127 0"/>
<feOffset dy="4"/>
<feGaussianBlur stdDeviation="2"/>
<feColorMatrix type="matrix" values="0 0 0 0 0 0 0 0 0 0 0 0 0 0 0 0 0 0 0.25 0"/>
<feBlend mode="normal" in2="BackgroundImageFix" result="effect1_dropShadow"/>
<feBlend mode="normal" in="SourceGraphic" in2="effect1_dropShadow" result="shape"/>
</filter>
<clipPath id="clip0">
<rect width="21.4615" height="21.4615" fill="white" transform="translate(30.7041 6) rotate(26.8825)"/>
</clipPath>
</defs>
</svg>
